<svg id="_лой_1" data-name="‘лой_1" xmlns="http://www.w3.org/2000/svg" viewBox="0 0 2238.84 1583.03"><defs><style>.cls-1,.cls-4{opacity:0.5;}.cls-2,.cls-3,.cls-4{fill:#e6e6e6;}.cls-3{opacity:0.6;}.cls-5{fill:#ffb27d;}.cls-6{fill:#6f6c88;}.cls-7{fill:#233862;}.cls-8{fill:#3f3d56;}.cls-9{fill:#0ea2bd;}.cls-10{fill:#006e88;}.cls-11{fill:#ed975d;}.cls-12{fill:#e8945b;}.cls-13{fill:#466aa5;}.cls-14{fill:#3b6096;}.cls-15{fill:#ccc;}.cls-16{fill:#fff;}.cls-17{opacity:0.9;}</style></defs><g class="cls-1"><path class="cls-2" d="M1868.88,391.1l-20-12a5.17,5.17,0,0,1-2.44-4.8q.32-3.7.31-7.48a85.79,85.79,0,0,0-1-13.7,5.11,5.11,0,0,1,2.42-5.21L1869,335.31a5,5,0,0,0,1.91-6.53l-9.81-20a5,5,0,0,0-6.1-2.46L1833.94,314a5,5,0,0,1-5.72-1.68,90.1,90.1,0,0,0-20.69-19.42,5.13,5.13,0,0,1-1.91-5.95l4.68-12.81a5.17,5.17,0,0,0-2.54-6.35l-19.85-9.71a4.52,4.52,0,0,0-1.25-.43,5,5,0,0,0-5.28,2.34l-9,14.89-2.19,3.64a88.18,88.18,0,0,0-12.55-.89,90.14,90.14,0,0,0-16.73,1.55,5,5,0,0,1-5.21-2.32l-10.11-16.8a5.15,5.15,0,0,0-6.69-1.95l-15.27,7.49-4.38,2.16a5.21,5.21,0,0,0-2.61,6.46l6.37,17.61a5,5,0,0,1-1.52,5.65A89.41,89.41,0,0,0,1688,311c-.38.41-.68.81-1,1.24a2.35,2.35,0,0,1-.36.41,5.08,5.08,0,0,1-5.49,1.27l-20.81-7.55a3.87,3.87,0,0,0-.72-.2A5.16,5.16,0,0,0,1654,309l-9.71,19.78a5.15,5.15,0,0,0,2,6.66l20.82,12.53a4.94,4.94,0,0,1,2.36,5.11,91.53,91.53,0,0,0-1,13.77q0,3.74.31,7.4a5.26,5.26,0,0,1-2.52,4.91l-20,12.09a5,5,0,0,0-1.9,6.48l9.73,19.75a5.22,5.22,0,0,0,6.48,2.62l16.68-6.05a5.13,5.13,0,0,1,6,2,89.79,89.79,0,0,0,18.63,20.46,5.1,5.1,0,0,1,1.63,5.77L1696.64,461a5.26,5.26,0,0,0,2.61,6.5l19.7,9.69a5.05,5.05,0,0,0,6.56-1.93l.53-.87L1736.49,457a5.16,5.16,0,0,1,5.36-2.41h0a89.78,89.78,0,0,0,15.76,1.4c2.87,0,5.69-.16,8.51-.41A5.05,5.05,0,0,1,1771,458l10.27,17.06a5.24,5.24,0,0,0,6.79,2l19.67-9.69a5.83,5.83,0,0,0,1.45-1.06,5.21,5.21,0,0,0,1.12-5.29L1805.17,447a5.18,5.18,0,0,1,.88-5,5.48,5.48,0,0,1,1.07-1,89.47,89.47,0,0,0,25-25.07,5,5,0,0,1,5.09-2.18,5.44,5.44,0,0,1,.83.23l16.85,6.12a5.11,5.11,0,0,0,6.33-2.54l.23-.46,9.48-19.26A5.21,5.21,0,0,0,1868.88,391.1Zm-157.5-38a59.14,59.14,0,0,1,4-10.39c3.31-6.64,11.47-14.85,18.12-18.12.72-.36,1.43-.69,2.14-1,43.56-19.57,85.58,23.2,64.46,66.79-2.77,5.7-8.9,12.38-14.87,16.53a31.61,31.61,0,0,1-4.07,2.38,55.18,55.18,0,0,1-18,5.34C1729.55,418.35,1701.9,387.47,1711.38,353.1Z"/></g><path class="cls-2" d="M1011.51,290.16,962,267.2a12.09,12.09,0,0,1-6.9-10.57q-.23-8.7-1.18-17.49A203,203,0,0,0,948,207.5a11.93,11.93,0,0,1,4.3-12.75l45.37-34.57a11.7,11.7,0,0,0,2.79-15.69l-27.89-44.06a11.59,11.59,0,0,0-14.83-4.2l-47.15,23.14a11.63,11.63,0,0,1-13.74-2.46,211.14,211.14,0,0,0-53.1-40,12,12,0,0,1-5.94-13.37l7.66-31A12.14,12.14,0,0,0,838,18.35L789.29.75a10.6,10.6,0,0,0-3-.69,11.64,11.64,0,0,0-11.72,6.78l-17.2,37-4.17,9a208.63,208.63,0,0,0-29.47,1.1,211.15,211.15,0,0,0-38.56,7.84,11.63,11.63,0,0,1-12.72-4.08L644.63,21.11a12,12,0,0,0-16.06-2.87L594.88,39.56l-9.64,6.13a12.21,12.21,0,0,0-4.46,15.7l19.3,39.42A11.62,11.62,0,0,1,598,114.34a208.51,208.51,0,0,0-27.89,35A36.3,36.3,0,0,0,568,152.5a6.87,6.87,0,0,1-.72,1,11.9,11.9,0,0,1-12.47,4.35l-50.39-12.33a8.74,8.74,0,0,0-1.71-.29,12.1,12.1,0,0,0-12.39,7.81l-17.62,48.51a12,12,0,0,0,6.24,15l51.65,23.93a11.63,11.63,0,0,1,6.79,11.3,213.55,213.55,0,0,0,1.05,32.35q.94,8.7,2.58,17.15a12.26,12.26,0,0,1-4.62,12.06l-43.6,33.24a11.72,11.72,0,0,0-2.8,15.58l27.66,43.54a12.24,12.24,0,0,0,15.76,4.46l37.31-18.3a12,12,0,0,1,14.52,3,210.32,210.32,0,0,0,48.57,43,12,12,0,0,1,5.24,13l-11.13,45.41a12.37,12.37,0,0,0,7.74,14.49L684,528.43a11.83,11.83,0,0,0,14.79-6.16l1-2.15,20-42.95a12.08,12.08,0,0,1,11.89-7h.05a209.38,209.38,0,0,0,37.06-.72c6.69-.73,13.23-1.79,19.73-3.1a11.84,11.84,0,0,1,11.92,4.4l28.22,37.13a12.26,12.26,0,0,0,16.32,3l43.38-27.53a13.26,13.26,0,0,0,3.1-2.85,12.21,12.21,0,0,0,1.27-12.6L877.2,436.44a12.21,12.21,0,0,1,.8-11.95,13.3,13.3,0,0,1,2.25-2.52,209.54,209.54,0,0,0,51.8-64.67,11.82,11.82,0,0,1,11.29-6.38,12.92,12.92,0,0,1,2,.32l40.8,10a12,12,0,0,0,14.1-7.52l.42-1.13,17.21-47.26A12.22,12.22,0,0,0,1011.51,290.16ZM635,241.43a140.65,140.65,0,0,1,6.72-25.23c6-16.28,23-37.46,37.64-46.78,1.57-1,3.14-2,4.72-2.91,96.53-56.59,205.19,32.44,167,139.31-5,14-17.6,31.07-30.46,42.23a73.62,73.62,0,0,1-8.87,6.59,129.69,129.69,0,0,1-40.63,17C693.84,388.81,621.63,323.87,635,241.43Z"/><path class="cls-3" d="M1823.91,1409.14c-15.89,6-121.14,17.08-116.8,30.41s77.89,26.78,116,9.82c0,0-30.94,113-88.91,114.29s-79.9-32.08-115.7-30.61-60.62,14.08-41.75,21.53,78.17-6.06,109.71,14.92c4.63,3.08,9.12,6,13.24,8.71,2.48,1.66,4.84,3.26,7,4.82H1495.88c0-1.7,0-3.32,0-4.82a125.24,125.24,0,0,0-.95-14s-109.12-45.23-70.55-128.67c0,0,32.57-52.28,72.06-69.4,0,0-8.13,118.59,14,118.73s-.47-132.79-.47-132.79,101.7-64.6,144.49-65.51c0,0-53.49,121.18-32,115.87s83-128.82,83-128.82,108.13-33.53,133.61,29.88S1839.81,1403.11,1823.91,1409.14Z"/><path class="cls-2" d="M497.83,1498.48c-46.6-47.2,25.05-130.5,25.05-130.5s133.74-7,146.78-24.12-115.51-16.33-115.51-16.33c17.34-37.74,114.16-103.3,114.16-103.3s109.61,71.53,118,51.75-100.28-58.39-100.28-58.39c30.51-28.54,89.64-37.33,89.64-37.33,89.2-2.09,87.27,112.55,87.27,112.55s38.52,24,97.57,25.94h0s11.48-.63,28.83,2l-5.49,9.43c-3-.7-5.92-1.28-8.81-1.71H975l-.13,0c-1.83-.2-4.45-.48-7.64-.79h0c-7.32-.4-12.62-.88-16.34-1.4h0c-22.73-1.67-53-2.66-62.69,2.81a21,21,0,0,0-3.15-4.53l3.15,4.53c25.18,36.27-16,120.32-51.43,159.9s-36.66,12.61-43.15-23.58,28.47-83.75,29.13-103.43-20.17-2.48-35.31,28.83,6.1,63.75-17.48,114.85-136.11,35-136.11,35c29.84-27.39,46.29-98.06,36.11-107.08s-60.71,80.41-72.22,92.23S544.44,1545.68,497.83,1498.48Z"/><path class="cls-2" d="M513.14,943c11.09-45.75,88.13-33.59,88.13-33.59s54.16,78.12,69.36,79.61-33.27-75.83-33.27-75.83c29.26-3.62,105,30.36,105,30.36s-2.27,92.87,12.83,90.58S753,951.79,753,951.79C781.6,959.55,809,992,809,992c34.55,53.06-35.37,94.7-35.37,94.7s-.09,32.2,20.76,68.58h0a109.67,109.67,0,0,1,9.54,18.16l-7.75.21q-1-3.09-2.26-6a0,0,0,0,0,0,0,.59.59,0,0,0,0-.08c-.56-1.19-1.37-2.87-2.37-4.92h0c-2.49-4.57-4.18-8-5.25-10.39v0c-7.47-14.35-18.18-33-25.1-36.8a15,15,0,0,0,1.57-3.59l-1.57,3.59c-12.49,28.74-78.62,35.23-115.73,28.64s-21.3-17.43-1.87-34.85,61.19-14.08,73.31-21-6-13.1-30.58-10.55S650,1105.11,610.38,1110s-71.92-69.12-71.92-69.12c27.67,7.79,76.49-8.66,78.13-18.18s-71.21-6.63-82.64-9.17S502,988.76,513.14,943Z"/><path class="cls-4" d="M1803.63,1089.21c46.63-39.56-12.4-121.87-12.4-121.87S1669,950,1658.4,933.26s107.4-5.6,107.4-5.6c-12.86-36.07-96.44-104.14-96.44-104.14s-106.46,56.78-112.6,37.93S1653.59,816,1653.59,816c-25.69-28.69-79.28-41.56-79.28-41.56-81.73-9.17-89.28,96.26-89.28,96.26s-37.32,18.88-91.71,15.89h0a142.53,142.53,0,0,0-26.63-.48l4.27,9.11c2.79-.41,5.54-.69,8.23-.85h.17c1.7,0,4.12-.08,7.08-.11h0c6.75.23,11.65.22,15.11,0h0c21,.31,48.91,1.86,57.34,7.67a19.87,19.87,0,0,1,3.26-3.91l-3.26,3.91c-26.07,31.26,5,111.79,34.23,151s32.65,14.56,41.54-18.14-19.33-79.22-18.34-97.35,18.72-.64,30.08,29.35-10.78,58,6.72,106.87,122.15,43.17,122.15,43.17c-25.17-27.57-34.54-93.81-24.46-101.26s49.22,78.77,58.83,90.56S1757,1128.77,1803.63,1089.21Z"/><g id="man"><path class="cls-5" d="M644.19,647.74c-5.09,13.67-13.9,29.54-23.15,33.48-10.48,4.48-14.86,10.8-14.86,10.8l-8.46-4.92-10.11-5.88s.23-1.12.73-3,1.25-4.35,2.27-7.17a9.77,9.77,0,0,0,1.2-9c-1.9-5-1.52-12.74,1.73-17.46s6.37-16.32,8.32-16c4.73.81-2.32,16.78-.3,19.74,1.83,2.68,4.12,1.76,4.55,1.55l.07,0c13.27-5.83,29.36-37.28,36.48-33C645.32,618.47,646.35,641.92,644.19,647.74Z"/><path class="cls-6" d="M598.29,666.78l16.62,11.68a2.62,2.62,0,0,0,3.64-.63l42.57-60.58a2.61,2.61,0,0,0-.64-3.63l-16.62-11.68a2.61,2.61,0,0,0-3.63.63l-42.57,60.58A2.61,2.61,0,0,0,598.29,666.78Z"/><path class="cls-7" d="M613.51,677.47l9.74,6.85a2,2,0,0,0,2.76-.48l43.29-61.6a2,2,0,0,0-.48-2.76l-9.74-6.85a2,2,0,0,0-2.77.48L613,674.71A2,2,0,0,0,613.51,677.47Z"/><path class="cls-8" d="M359.88,579.86s84.56,147.49,115.24,174.63l112.49-83.87s16.32,5,23.47,21.4c0,0-68.31,139.17-135.57,145.07S313.86,670.28,313.86,670.28Z"/><path class="cls-6" d="M168.51,1583H119.65c-6.15-3.34-11.63-11-13.36-22.38-2.39-15.75-20-24.33-23.85-37.21s15.75-31,15.75-31l3.27-4.22,3.4-4.38,32.43,7.64s.8,7.73,1.29,17.56a225,225,0,0,1,.14,22.5c-.95,17.16,4.8,35.65,20.05,39C170.05,1573,169.55,1579.71,168.51,1583Z"/><path class="cls-6" d="M452.07,1583H340.34c-5.38-6.55-3.4-30.75-2.58-38.66.16-1.59.28-2.51.28-2.51s38.16-30.52,43.4-7.16c.16.74.35,1.45.56,2.16,6.6,21.86,36.22,31.79,53.33,34.56C446.44,1573.22,450.55,1579,452.07,1583Z"/><path class="cls-9" d="M430.78,959.33s-5.79,72.28-12.6,159.18c-9.25,118-20.38,263-21.49,290.49-1.9,47.69-9.54,124-9.54,124s-18.11,18.13-54.36,10.49c0,0-32.3-108.91-41.53-224.14-.14-1.89-.29-3.79-.43-5.69-8.58-117.31-21.93-364.33-21.93-364.33Z"/><path class="cls-10" d="M430.78,959.33s-5.79,72.28-12.6,159.18L291.26,1319.33c-.14-1.89-.29-3.79-.43-5.69-8.58-117.31-21.93-364.33-21.93-364.33Z"/><path class="cls-9" d="M404.33,967.91s-104.44,261.79-173.1,384.82S141.1,1510.1,141.1,1510.1s-39.34-15.74-42.92-26.47c0,0,26.26-237.51,72.25-295.41,26-32.72,56.51-130.9,57.94-165.23s9.29-102.29,9.29-102.29Z"/><path class="cls-5" d="M378.33,586.27c-40.81,12.88-111.42-21.88-111.42-21.88s37.63-28.24,35.65-86.95l31.56,25.43,21.43,17.27a257.6,257.6,0,0,1-2.43,28c-.62,4.69-1.39,9.92-2.36,15.64A97.72,97.72,0,0,1,378.33,586.27Z"/><path class="cls-11" d="M355.55,520.14a257.6,257.6,0,0,1-2.43,28c-23.75-4.08-50.69-42.46-50.69-42.46,12.09-3.5,22.68-4.12,31.69-2.84Z"/><path class="cls-5" d="M368,519.17s-67.4,11.2-73.73-30.88-19.29-69,23.48-77.92,53.56,5.87,59.09,19.41S385.4,515.17,368,519.17Z"/><path class="cls-6" d="M435.29,965.35A6.61,6.61,0,0,1,431,967c-15.33-.21-60,8.31-97.83,4.42-31.87-3.06-60.09-12.5-90.39-26.08-4-1.81-13.28-6.75-13.07-11.25.13-4.92.62-12.06,1.24-21.06,2.14-31.27,5.88-85.06,2.23-147.12-.65-11.56-1-23-1-34.31-.31-84.1,16.37-158.08,49.88-183.12,2.86-2.05,20.44,6.54,36.58,14.5,14.92,7.36,29.84,8.17,43.94,5.32l14.09,12.46c17.17,15.94,36,37.61,44.15,70.5,7,28,11,78.48,13.28,130.79,1,23.71,1.84,47.62,2.05,70.31v.81c.2,2.25.2,4.71.2,7C437.13,918.34,436.31,964.52,435.29,965.35Z"/><path class="cls-8" d="M231,913c2.14-31.27,5.88-85.06,2.23-147.12-.65-11.56-1-23-1-34.31,14-33.86,25.37-58.42,25.37-58.42H292.7S318.5,849.37,231,913Z"/><path class="cls-6" d="M50.7,1112.72l150.07,21.39a36,36,0,0,0,40.57-30.46l9.27-65A36,36,0,0,0,220.16,998L70.08,976.66a36,36,0,0,0-40.57,30.45l-9.27,65A36,36,0,0,0,50.7,1112.72Z"/><path class="cls-8" d="M228.63,1017.43h0a36.1,36.1,0,0,0-24.86-21.72h0c-1.13-.27-2.28-.5-3.47-.67l-29.88-4.25,2-14a11.9,11.9,0,0,0-10.09-13.43l-7.79-1.12-31.38-4.47-5.66-.8A11.88,11.88,0,0,0,104,967l-2,14-51.58-7.36a36.12,36.12,0,0,0-40.73,30.57L.36,1070a36.1,36.1,0,0,0,30.56,40.72l149.81,21.35a34.21,34.21,0,0,0,7.81.25h0a35.36,35.36,0,0,0,11.69-2.95,36.06,36.06,0,0,0,21.2-27.87l9.38-65.78A35.66,35.66,0,0,0,228.63,1017.43ZM111.41,968.05a4.44,4.44,0,0,1,3.68-3.74,4.29,4.29,0,0,1,1.34,0l6.66.94,24.7,3.53,13.46,1.92a4.43,4.43,0,0,1,3.76,5l-2,14-53.61-7.65Z"/><path class="cls-5" d="M164.82,919.07s-7.88,10.5-8.2,14.69c-2.11,28.43,10.88,32.37-22.76,48.16,0,0-14.36,5.48-14.6-5.67s10-11.33,8.1-26.94c-2.16-18-1.94-18.17,9.87-27.57l7.83-12.93Z"/><path class="cls-6" d="M144.78,927.11c12.67,2.48,26.4,1.47,26.4,1.47s37.62-116.21,42.46-126.82S325.38,665.5,325.38,665.5L280.85,554.05S165.23,747.18,153.49,774.32c-19.4,44.85-26.13,145.39-26.13,145.39A48.21,48.21,0,0,0,144.78,927.11Z"/><path class="cls-6" d="M294.24,484.23s6.92-1.15,5.8-10.68-1.1-22,6.65-19.66,8.13,8.52,11.31,4.9,3.24-18.88,26.29-19.94,32.42,7,43.14,2.25,11.28-20.94,11.28-20.94-3,5.79-7.65,7.64c0,0,17.88-24.46-2.82-41.23s-41.81-5.8-53.8-5.07C308,383.1,291,384.68,282.37,402S277.3,467.54,294.24,484.23Z"/><path class="cls-5" d="M152.39,931.57s7.59,7.91,8.06,11.2c1.54,10.57,5.07,15.13,3.3,16.28-3.67,2.39-8.54-5.43-10.86-12.45S152.39,931.57,152.39,931.57Z"/></g><path class="cls-8" d="M1994.74,415s20.13,0,41,13.3c16.38,10.45,53.42,63.33,65.62,94.79s-13.23,45.09,4.94,63.14c17.95,17.85,42.49,68.18.86,92.89-23.52,14-65.37-29.21-92.25-35.3s-98.82,49.32-117.74,31.89-37.87-47.36,19-85.26c14.68-9.78-50-15.91-22.31-86.07C1912.88,456,1946.81,413.58,1994.74,415Z"/><path class="cls-5" d="M1790.24,718.64c0-.7,10.36-22.13,7.07-23.78s-9.21-1.4-9.89,2.35S1790.24,718.64,1790.24,718.64Z"/><path class="cls-8" d="M1944.94,452.31s50.72-51.09,82.89-4.36c0,0,19.87-5.78,28.55,35.07,8.86,41.68-4.68,67.16-19,59.33-9.19-5-16.15,11.07-16.15,11.07Z"/><path class="cls-5" d="M1869.57,840.89c-48.31-17.8-94.84-100.47-94.84-100.47L1790,729.75c12.7,18.56,69.79,54.21,69.79,54.21,1.3-15.65,3.19-29.84,5.53-42.7,15.85-87.37,52.11-113.25,61.84-118.75a22.4,22.4,0,0,1,2.45-1.24s0,.64-.1,1.86c-.14,2.63-.45,7.93-1,15.19C1924.74,692.42,1909.94,855.77,1869.57,840.89Z"/><path class="cls-5" d="M2103.07,930.11c-23.87-53.53-35.29-68.67-35.69-85.51-.31-13.32,6.25-27.69,19-62.92a130.94,130.94,0,0,0,6.35-25.47C2102.83,688.28,2063.38,614,2039,609c-10.55-2.55-18.14-25.43-18-65l-3.06.61-51.4,10.17s1.16,16.18,1.2,31.42c0,12.7,2.15,26.07-3.61,26.26-3.7.33-5.88.55-5.88.55s-42.87,59.53-46.47,114.9,34.32,79.41-.29,190.05C1876.12,1030.94,2116.25,959.68,2103.07,930.11Z"/><path class="cls-12" d="M1966.5,554.76s1.17,16.18,1.21,31.42c28.77-.81,44-27,50.2-41.59Z"/><path class="cls-8" d="M2023.22,539s15.08-23.82,18.7-44.19c2.58-14.54-4.83-68.44-59-60.68a73.58,73.58,0,0,0-30.52,11.54c-11.76,7.94-28.73,25.09-9.76,72.12l4.93,15.89Z"/><path class="cls-5" d="M1956.9,569.2s68.06,1.12,68.11-41.28,8.86-70.8-34.59-73.31-51.92,13.66-55.38,27.8S1939.2,567.81,1956.9,569.2Z"/><path class="cls-8" d="M1959.42,453.57s18.63,49.74,47.23,57.09,41-.31,41-.31-21.94-17.42-26.49-47.84C2021.17,462.51,1973.47,429.9,1959.42,453.57Z"/><path class="cls-8" d="M1964,457.61a60,60,0,0,0-17.23,17.57c-6.21,9.46-12.4,17.86-11.48,36.59,0,0-14-33.8,1.74-52.93C1953.8,438.56,1964,457.61,1964,457.61Z"/><path class="cls-8" d="M2042.8,1443.73c-17.12,68.12-42.9,120.34-42.9,120.34l-22.44-1.55s11-52.37,10.37-123.12c-.44-49.46-6.56-107.91-26.1-163.73-67.16-191.8-56.31-331.39-56.31-331.39l126.29,14.77,5.89.69c.52,58,2,136.75,3.33,198.33,1.16,55.38,2.18,96.87,2.18,96.87C2067.39,1307.23,2058.57,1381,2042.8,1443.73Z"/><path class="cls-5" d="M2191.59,987l-20.44,6.13s-67.4-111.84-73.53-140.94c-2-9.47-6.9-28.43-12.62-49.67-11.83-44-27.11-97.81-27.11-97.81l-5-21.79-17.16-74.31s32.86,3.36,52.07,11.39c6.37,2.66,11.22,5.83,12.92,9.55,14.11,31,28.21,109.38,38.11,165.26,5.52,31.15,9.73,55.32,11.93,60.45C2156.86,869.51,2175.59,948.15,2191.59,987Z"/><path class="cls-6" d="M2115.26,1432.85c-7.26,77.5-39.24,127.61-39.24,127.61l-10.72,7.8s-10.15-54.6-17.33-119.56c-6.84-61.74-16.22-127.07-26.83-147C1979,1222.6,1966.35,924,1966.35,924l128-6.35c12.88,21.65,18.49,57.16,19.83,97.54,3.37,101.89-20.59,234.76-24.17,254a.11.11,0,0,1,0,0,6.68,6.68,0,0,0,.84,4.29C2116.36,1324,2120,1381.66,2115.26,1432.85Z"/><path class="cls-9" d="M2119.12,968.75c.22,4.31,0,7.76-.8,10.23-2.72,8.58-12.08,12.48-34.7,10.14-13.82-1.44-20-24.61-22.74-44.37q-12.45,42.42-35,47.48c-21.92,4.88-132.54,18.33-139.78-34.25-8-57.84,15.88-160.25,17.19-215.47a273.42,273.42,0,0,1-4-51.17c.92-39.33,13.59-62.18,22.47-71.06,15.68-6,40.56-7.75,40.46-7.6-1.87,3.35-8.2,22.72-7.15,32.61,3.27,30.71,35,27.4,62.81,8.82,20.59-13.72,32.23-43.62,32.23-43.62s41.1,3.35,50.73,19.09c18.44,30.12,32.82,110.16,44.35,166.44-27.95,15.41-52.37,10.82-59.95,8.79C2095.18,869.62,2117.64,939.22,2119.12,968.75Z"/><path class="cls-5" d="M1790,729.75c0-2.1,1.77-32.5-3.64-38.89s-16.47-15.47-19.94-15.19-17.07,18.34-13,32.18,21.33,32.57,21.33,32.57Z"/><path class="cls-9" d="M1807.87,686.5l-27.1,8.12a1.59,1.59,0,0,1-2-.9l-13.17-44a1.58,1.58,0,0,1,1.21-1.87l27.09-8.12a1.59,1.59,0,0,1,2.05.9l13.17,44A1.59,1.59,0,0,1,1807.87,686.5Z"/><path class="cls-10" d="M1806.6,695,1778,703.58a3.27,3.27,0,0,1-4.21-1.84l-14.53-48.49a3.27,3.27,0,0,1,2.5-3.86l28.58-8.56a3.27,3.27,0,0,1,4.21,1.84l14.53,48.49A3.27,3.27,0,0,1,1806.6,695Z"/><path class="cls-8" d="M2012.83,1582.89H1998.5c-4.8-.75-8.35-2.14-13.27-2.79-7.48-1-10.92,2.09-11.6,2.79l-.13.14h-60.87c-1.54-2.18-.06-7.25,1.38-11a8.63,8.63,0,0,1,5.69-5.21c6.46-1.87,19.18-3.54,30.84-14.09,6.55-5.92,31.66-21.78,31.66-21.78l.13,0c.55,0,3.18.81,14.59,10.46,5.91,5,16-7,16-7a14.3,14.3,0,0,1,3.3,4.47,15.13,15.13,0,0,1,1.3,9.35c-.9,5.48,2,15.67,4.37,22.57,1.41,4.17,2.61,7.14,2.61,7.14S2025.15,1581.35,2012.83,1582.89Z"/><path class="cls-13" d="M2016.19,1538.85c-3.42,2.41-10.64,7.16-15.44,7.78-6.46.85-18.55-15.65-18.55-15.65l.13,0c.55,0,3.18.81,14.59,10.46,5.91,5,16-7,16-7A14.3,14.3,0,0,1,2016.19,1538.85Z"/><path class="cls-14" d="M2012.83,1582.89H1998.5c-4.8-.75-8.35-2.14-13.27-2.79-7.48-1-10.92,2.09-11.6,2.79l-.13.14h-60.87c-1.54-2.18-.06-7.25,1.38-11,1.84-1.65,2.37,7.13,3.39,8.53s49.65.51,52.46-1.53,11.23-5.62,23-2.81c10.22,2.44,25.29-3.82,29-5.48,1.41,4.17,2.61,7.14,2.61,7.14S2025.15,1581.35,2012.83,1582.89Z"/><path class="cls-6" d="M2089.29,1582.89H2075c-4.8-.75-8.34-2.14-13.26-2.79-7.48-1-10.92,2.09-11.61,2.79l-.13.14h-60.87c-1.53-2.18-.06-7.25,1.38-11a8.64,8.64,0,0,1,5.7-5.21c6.45-1.87,19.18-3.54,30.83-14.09,6.56-5.92,31.66-21.78,31.66-21.78l.14,0c.55,0,3.17.81,14.59,10.46,5.9,5,16-7,16-7a14.3,14.3,0,0,1,3.3,4.47,15.12,15.12,0,0,1,1.31,9.35c-.91,5.48,2,15.67,4.36,22.57,1.42,4.17,2.61,7.14,2.61,7.14S2101.62,1581.35,2089.29,1582.89Z"/><path class="cls-13" d="M2092.65,1538.85c-3.42,2.41-10.64,7.16-15.43,7.78-6.47.85-18.56-15.65-18.56-15.65l.14,0c.55,0,3.17.81,14.59,10.46,5.9,5,16-7,16-7A14.3,14.3,0,0,1,2092.65,1538.85Z"/><path class="cls-13" d="M2089.29,1582.89H2075c-4.8-.75-8.34-2.14-13.26-2.79-7.48-1-10.92,2.09-11.61,2.79l-.13.14h-60.87c-1.53-2.18-.06-7.25,1.38-11,1.85-1.65,2.37,7.13,3.39,8.53s49.66.51,52.47-1.53,11.23-5.62,23-2.81c10.22,2.44,25.28-3.82,29-5.48,1.42,4.17,2.61,7.14,2.61,7.14S2101.62,1581.35,2089.29,1582.89Z"/><path class="cls-10" d="M2119.12,968.75c-15.53-24.47-24.63-54.09-36.79-88-31.33-87.35-26.58-135.1-19-136.86s21.92,60.92,21.92,60.92C2095.18,869.62,2117.64,939.22,2119.12,968.75Z"/><path class="cls-9" d="M1910.08,753a39.28,39.28,0,0,1-7.15-1.07c-.52-.13-1-.27-1.57-.42a54.64,54.64,0,0,1-16.57-8.32c-10.4-7.43-21.91-20.18-21.91-20.18,20.26-90.2,58.91-102.75,58.91-102.75S1934.12,754.3,1910.08,753Z"/><path class="cls-5" d="M1763.13,678s13.12-20.18,16.32-19.06c4.58,1.6-11.89,27.22-11.89,27.22s12.2-19.14,14.11-17.7c4.34,3.28-2.57,15.3-9.43,24.52,0,0,12.27-11.23,12.67-9.21,1.41,7.09-13.47,24.27-13.47,24.27l-8.31-19Z"/><path class="cls-5" d="M1753.29,696.75c.63-2.47,3.83-50.68,5.21-46.1s4.63,29.84,4.63,29.84Z"/><path class="cls-9" d="M2050.67,719.55l25.07,91.11s52.2,3.6,69.48-14.64l-31.58-81.11Z"/><path class="cls-10" d="M1890.52,752c-.17-.13-.34-.27-.5-.42-2-1.77-3.72-4.89-5.23-8.32a52.2,52.2,0,0,1,1.94-8.89c1.93-5.69,3.53-28.91,4.2-27S1890.52,752,1890.52,752Z"/><path class="cls-5" d="M2191.59,987s24.65,16.39,28.42,23.29,12.56,32.34,12.56,32.34-6.28,1-12.56-10-27-10-33.91-16-14.95-23.44-14.95-23.44Z"/><path class="cls-5" d="M2173.83,998.49s4.1,19.3,9.13,25,11.93,15.07,14.75,12.56-3.14-23.55-3.14-23.55Z"/><path class="cls-5" d="M2216.55,1012.45c.63.94,22.29,24,22.29,24s-7.84,3.55-10,0S2216.55,1012.45,2216.55,1012.45Z"/><path class="cls-15" d="M1566.65,217.36v1280a76.13,76.13,0,0,1-76.12,76.14H821.42a76.13,76.13,0,0,1-76.13-76.14v-1280a76.12,76.12,0,0,1,76.13-76.12h669.11A76.12,76.12,0,0,1,1566.65,217.36Z"/><path class="cls-2" d="M1502.78,769.23A347.09,347.09,0,0,1,1359.5,1050c-1.64,1.2-3.29,2.39-5,3.53a347.21,347.21,0,0,1-341.69,31.59q-8.1-3.69-16-7.79a340.65,340.65,0,0,1-35.29-21,347.34,347.34,0,0,1-152.3-287.14c0-191.49,155.24-346.73,346.76-346.73S1502.78,577.74,1502.78,769.23Z"/><path class="cls-8" d="M1447.75,956.76A349.32,349.32,0,0,1,1359.5,1050c-1.64,1.2-3.29,2.39-5,3.53-41.22-8-91.23-60.59-133.65-82.72a92.54,92.54,0,0,0-21.87-8.49c-24.61-5.59-67.6,13.92-111.14,34.11-26,12-52.15,24.32-74.74,31.67l-.58.2c-20.36,6.57-37.78,9.08-49.48,3.73a23.67,23.67,0,0,1-6.21-4.1,162.28,162.28,0,0,1-21.9-24.25c-26.33-36.61-32.83-88.6,60.94-151.11,30.19-20.12-106.47-13.45-49.55-157.76,39.24-99.47,112.68-205.92,211.26-203.09,0,0,41.4,0,84.25,27.36,33.68,21.49,81.77,119.29,106.86,184s-23.94,105.73,15.62,140.51C1405.61,879.88,1440,919.51,1447.75,956.76Z"/><path class="cls-8" d="M1055.3,568.26s104.32-105.07,170.49-9c0,0,40.86-11.88,58.71,72.14,18.22,85.73-9.63,138.14-39.1,122-18.91-10.32-33.22,22.76-33.22,22.76Z"/><path class="cls-5" d="M1359.5,1050c-1.64,1.2-3.29,2.39-5,3.53a347.21,347.21,0,0,1-341.69,31.59q-8.1-3.69-16-7.79a443.3,443.3,0,0,1,15.72-47.8v0l.55-1.41c28.42-72.4,69.47-129.4,69.47-129.4h.22a.85.85,0,0,1,.2,0l.37,0h0l.41,0,.59-.05c.57,0,1.29-.12,2.11-.22.26,0,.5-.06.76-.07s.44,0,.66-.06l.64-.05.49,0,.51,0,5.11-.47c13.17-2.21,7.5-27.87,7.43-54,0-5.88-.12-11.82-.26-17.61l-.09-2.87c0-.87,0-1.72-.07-2.57s0-1.49-.07-2.22c0-.29,0-.57,0-.85,0-1.85-.13-3.67-.2-5.45-.05-1.49-.11-2.93-.17-4.33-.3-6.74-.61-12.73-.88-17.49,0-.54-.06-1.07-.09-1.58a.81.81,0,0,1,0-.15c0-.33,0-.64-.06-1,0-.77-.1-1.5-.14-2.17,0-.49-.06-.93-.09-1.36s-.06-1.11-.1-1.6a1.69,1.69,0,0,0,0-.23c0-.75-.09-1.38-.12-1.88,0-.17,0-.33,0-.47l-.06-.85,99.73-19.74,6-1.19,6.28-1.24v.07c0,6.57.09,12.92.3,19,2.41,69.59,19.19,109.93,32,113.32,4.83,2.45,15.63,3.84,26.07,5.07,11,1.27,21.54,2.37,24.41,4.32C1324.86,919.25,1349.42,978.38,1359.5,1050Z"/><path class="cls-12" d="M1099.66,779s2.4,33.27,2.47,64.62c59.17-1.67,90.44-55.64,103.25-85.56Z"/><path class="cls-8" d="M1216.3,746.53s31-49,38.45-90.88c5.31-29.91-9.92-140.76-121.32-124.8a151.41,151.41,0,0,0-62.77,23.73c-24.18,16.34-59.09,51.6-20.06,148.34l10.14,32.68Z"/><path class="cls-5" d="M1079.9,808.66s140,2.31,140.08-84.89S1238.2,578.15,1148.83,573,1042.06,601.08,1035,630.18,1043.49,805.81,1079.9,808.66Z"/><path class="cls-8" d="M1085.08,570.85s38.33,102.3,97.14,117.42,84.34-.63,84.34-.63-45.12-35.84-54.48-98.41C1212.08,589.23,1114,522.16,1085.08,570.85Z"/><path class="cls-8" d="M1094.58,579.16s-19.28,11.5-35.44,36.14c-12.77,19.46-25.5,36.73-23.6,75.26,0,0-28.88-69.53,3.57-108.87C1073.52,540,1094.58,579.16,1094.58,579.16Z"/><path class="cls-9" d="M1376,932.85c-25-33.35-105.92-38.59-105.92-38.59a.1.1,0,0,1,0,0c-.6,1.59-17.5,46.53-49.19,76.53a117.77,117.77,0,0,1-15.49,12.47c-45.05,30-95,40.66-117.52,13.15-6.12-7.48-10.24-17.79-11.68-31.3-2.15-20.35,10.88-60.19,14.72-67.07.06-.09-.48-.07-1.31,0l-.51,0-.49,0-.64.05c-.22,0-.43,0-.66.06s-.5,0-.76.07c-.74.06-1.48.15-2.11.22l-.59.05-.41,0h0l-.37,0a.85.85,0,0,0-.2,0h-.22c-20.82,2.74-62.6,7.29-77.23,16.65l0,0c-.84.42-37.85,19.74-70.39,88.31-3.49,7.36-6.93,15.28-10.27,23.82a345.46,345.46,0,0,0,36.88,28.84,340.65,340.65,0,0,0,35.29,21q7.88,4.1,16,7.79a347.21,347.21,0,0,0,341.69-31.59c1.68-1.14,3.33-2.33,5-3.53a346.57,346.57,0,0,0,49.61-43.78C1399.38,975.27,1388.5,949.52,1376,932.85Z"/><polygon class="cls-16" points="929.14 597.53 912.29 597.53 912.29 545.99 968.43 545.99 968.43 562.83 929.14 562.83 929.14 597.53"/><polygon class="cls-16" points="1388.6 599.83 1371.76 599.83 1371.76 560.53 1337.06 560.53 1337.06 543.69 1388.6 543.69 1388.6 599.83"/><polygon class="cls-16" points="1388.6 927.86 1332.46 927.86 1332.46 911.02 1371.76 911.02 1371.76 876.32 1388.6 876.32 1388.6 927.86"/><polygon class="cls-16" points="963.84 930.16 912.29 930.16 912.29 874.02 929.14 874.02 929.14 913.32 963.84 913.32 963.84 930.16"/><path class="cls-8" d="M1448.89,1455.79v113.52q0,2.1-.09,4.17H867.49q-.09-2.07-.09-4.17V1455.79c0-51.79,33.43-94.16,74.28-94.16h432.93C1415.46,1361.63,1448.89,1404,1448.89,1455.79Z"/><path class="cls-8" d="M1490.52,1583H821.42a85.78,85.78,0,0,1-85.69-85.68v-1280a85.79,85.79,0,0,1,85.69-85.69h669.1a85.79,85.79,0,0,1,85.69,85.69v1280A85.78,85.78,0,0,1,1490.52,1583ZM821.42,150.79a66.65,66.65,0,0,0-66.58,66.58v1280a66.65,66.65,0,0,0,66.58,66.57h669.1a66.65,66.65,0,0,0,66.58-66.57v-1280a66.65,66.65,0,0,0-66.58-66.58Z"/><polygon class="cls-16" points="1154.76 1496.56 1117.34 1463.06 1127.86 1451.32 1152.03 1472.96 1185.47 1425.11 1198.39 1434.14 1154.76 1496.56"/><path class="cls-16" d="M1157.87,1532a71.21,71.21,0,1,1,71.21-71.21A71.28,71.28,0,0,1,1157.87,1532Zm0-139.56a68.36,68.36,0,1,0,68.35,68.35A68.44,68.44,0,0,0,1157.87,1392.48Z"/><rect class="cls-16" x="891.05" y="1195.04" width="539.04" height="4.82"/><path class="cls-16" d="M1412.45,1197.45a17.65,17.65,0,1,1,17.65,17.65A17.65,17.65,0,0,1,1412.45,1197.45Z"/><path class="cls-8" d="M873.41,1197.45a17.65,17.65,0,1,1,17.65,17.65A17.65,17.65,0,0,1,873.41,1197.45Z"/><path class="cls-8" d="M1136.91,1197.45a23.67,23.67,0,1,1,23.67,23.67A23.67,23.67,0,0,1,1136.91,1197.45Z"/><rect class="cls-8" x="891.05" y="1195.04" width="269.15" height="4.82"/><path class="cls-16" d="M812.33,339.58v-2.42h54l32.87-62.44H900c25.64,0,64.42-.25,68.34-.92l67-67h98v2.41h-97L970.1,275.42c-.56,1.11-4.71,1.33-35.62,1.58-15.17.12-30.34.13-33.79.13l-32.86,62.45Z"/><polygon class="cls-16" points="980.89 285.28 980.89 268.58 966.42 260.23 951.96 268.58 951.96 285.28 966.42 293.63 980.89 285.28"/><polygon class="cls-16" points="1051 218.82 1051 202.12 1036.54 193.77 1022.08 202.12 1022.08 218.82 1036.54 227.17 1051 218.82"/><polygon class="cls-16" points="1087.7 330.01 1087.7 313.32 1073.23 304.97 1058.78 313.32 1058.78 330.01 1073.23 338.36 1087.7 330.01"/><polygon class="cls-16" points="883.75 346.63 883.75 329.93 869.29 321.58 854.83 329.93 854.83 346.63 869.29 354.98 883.75 346.63"/><polygon class="cls-16" points="811.36 342.78 811.36 333.78 803.56 329.28 795.77 333.78 795.77 342.78 803.56 347.28 811.36 342.78"/><polygon class="cls-16" points="1141.1 213.84 1141.1 204.84 1133.31 200.34 1125.51 204.84 1125.51 213.84 1133.31 218.34 1141.1 213.84"/><polygon class="cls-16" points="968.18 275.73 969.79 273.94 1022.76 321.46 1063.19 321.46 1063.19 323.88 1021.83 323.88 1021.49 323.56 968.18 275.73"/><polygon class="cls-16" points="1217.32 343.03 1230.78 343.03 1237.51 354.69 1230.78 366.35 1217.32 366.35 1210.58 354.69 1217.32 343.03"/><polygon class="cls-16" points="1477.76 298.9 1491.14 298.9 1497.83 310.5 1491.14 322.08 1477.76 322.08 1471.06 310.5 1477.76 298.9"/><polygon class="cls-16" points="1300.05 331.18 1326.85 331.18 1340.25 354.4 1326.85 377.61 1300.05 377.61 1286.64 354.4 1300.05 331.18"/><polygon class="cls-16" points="1153.72 264.57 1167.19 264.57 1173.92 276.23 1167.19 287.89 1153.72 287.89 1146.99 276.23 1153.72 264.57"/><polygon class="cls-16" points="1427.71 406.9 1441.09 406.9 1447.78 418.49 1441.09 430.08 1427.71 430.08 1421.02 418.49 1427.71 406.9"/><polygon class="cls-16" points="1298.07 331.13 1299.7 330.07 1263.43 274.38 1168.4 274.38 1168.4 276.32 1262.38 276.32 1298.07 331.13"/><polygon class="cls-16" points="1427.59 409.22 1429.36 408.45 1405.4 353.43 1340.25 353.43 1340.25 355.36 1404.13 355.36 1427.59 409.22"/><polygon class="cls-16" points="1405.55 354.96 1436.87 311.46 1483.79 311.46 1483.79 309.53 1435.88 309.53 1403.98 353.83 1405.55 354.96"/><rect class="cls-16" x="1230.23" y="352.98" width="55.17" height="1.94"/><g class="cls-17"><path class="cls-16" d="M1047.39,635.42a7.7,7.7,0,1,1,7.7,7.69A7.7,7.7,0,0,1,1047.39,635.42Z"/><path class="cls-16" d="M1047.39,736.93a7.7,7.7,0,1,1,7.7,7.69A7.7,7.7,0,0,1,1047.39,736.93Z"/><path class="cls-16" d="M1047.39,688a7.7,7.7,0,1,1,7.7,7.69A7.7,7.7,0,0,1,1047.39,688Z"/><path class="cls-16" d="M990.47,688a7.7,7.7,0,1,1,7.7,7.69A7.7,7.7,0,0,1,990.47,688Z"/><path class="cls-16" d="M1110.15,635.42a7.7,7.7,0,1,1,7.69,7.69A7.69,7.69,0,0,1,1110.15,635.42Z"/><path class="cls-16" d="M1110.15,688a7.7,7.7,0,1,1,7.69,7.69A7.69,7.69,0,0,1,1110.15,688Z"/><path class="cls-16" d="M1110.15,736.93a7.7,7.7,0,1,1,7.69,7.69A7.69,7.69,0,0,1,1110.15,736.93Z"/><path class="cls-16" d="M1110.15,788.76a7.7,7.7,0,1,1,7.69,7.7A7.69,7.69,0,0,1,1110.15,788.76Z"/><path class="cls-16" d="M1175.35,688a7.7,7.7,0,1,1,7.7,7.69A7.7,7.7,0,0,1,1175.35,688Z"/><path class="cls-16" d="M1221.79,688a7.7,7.7,0,1,1,7.7,7.69A7.7,7.7,0,0,1,1221.79,688Z"/><path class="cls-16" d="M1175.35,736.93a7.7,7.7,0,1,1,7.7,7.69A7.7,7.7,0,0,1,1175.35,736.93Z"/><path class="cls-16" d="M1110.15,582.82a7.7,7.7,0,1,1,7.69,7.69A7.69,7.69,0,0,1,1110.15,582.82Z"/><path class="cls-16" d="M1172.9,635.42a7.7,7.7,0,1,1,7.7,7.69A7.7,7.7,0,0,1,1172.9,635.42Z"/><polygon class="cls-16" points="1054.09 738.97 1054.09 635.42 1056.08 635.42 1056.08 734.88 1116.85 687.53 1116.85 582.82 1118.84 582.82 1118.84 688.5 1054.09 738.97"/><path class="cls-16" d="M1117.83,790.05l-65.52-54.12h64.54V689h-64.51l65.49-54.89,66.22,53.42v46.89L1228.12,688l-48.21-51.87-62.07-52-62.11,52.06L999.65,688l52.78,46.59-1.32,1.49L996.68,688l57.73-53.35,63.43-53.17,63.49,53.23L1230.86,688l-46.81,49.3v.6h-.65Zm-60-52.13,60,49.56,62.33-49.56Zm61-2h63.21V688.49l-64.19-51.78-60,50.31h61Z"/><polygon class="cls-16" points="1118.84 788.76 1116.85 788.76 1116.85 736.43 1178.16 690.45 1179.36 692.04 1118.84 737.42 1118.84 788.76"/><rect class="cls-16" x="1003" y="687.02" width="46.64" height="2"/><rect class="cls-16" x="1125.54" y="687.02" width="53.22" height="2"/><polygon class="cls-16" points="1184.01 684.84 1179.69 636.41 1058.38 636.41 1058.38 634.42 1181.51 634.42 1186 684.67 1184.01 684.84"/><polygon class="cls-16" points="1182.45 737.72 1116.24 688.06 1179.96 634.65 1181.24 636.18 1119.45 687.97 1183.65 736.13 1182.45 737.72"/><rect class="cls-16" x="1085.47" y="620.17" width="2" height="79.83" transform="translate(-103.95 1106.21) rotate(-51.83)"/><rect class="cls-16" x="1183.05" y="687.02" width="48.96" height="2"/></g></svg>